<svg xmlns="http://www.w3.org/2000/svg" xmlns:xlink="http://www.w3.org/1999/xlink" version="1.1" x="0px" y="0px" viewBox="0 0 100 100" enable-background="new 0 0 100 100" xml:space="preserve"><g><path d="M50,3C24,3,3,24,3,50s21,47,47,47s47-21,47-47S76,3,50,3z M50,91C27.4,91,9,72.6,9,50S27.4,9,50,9s41,18.4,41,41   S72.6,91,50,91z"></path><path d="M68.9,33.2L46.4,58.6L33.7,48.4c-1.7-1.4-4.2-1.1-5.6,0.6c-1.4,1.7-1.1,4.2,0.6,5.6l15.7,12.5c0.7,0.6,1.6,0.9,2.5,0.9   c1.1,0,2.2-0.5,3-1.3l25.1-28.2c1.5-1.7,1.3-4.2-0.3-5.6C72.9,31.4,70.4,31.6,68.9,33.2z"></path></g></svg>