<svg xmlns="http://www.w3.org/2000/svg" xmlns:xlink="http://www.w3.org/1999/xlink" version="1.1" x="0px" y="0px" viewBox="0 0 60 60" enable-background="new 0 0 60 60" xml:space="preserve"><path d="M35,0C23.85,0,14.43,2.59,11.22,6.47c-6.55,1.6-10.33,4.3-11.07,7.04C0.06,13.66,0,13.82,0,14v0.5V26v0.5V27v11v0.5V39v12  c0,0.16,0.04,0.32,0.12,0.45C1.3,56.35,11.86,60,25,60c11.24,0,20.58-2.68,23.79-6.52c6.36-1.55,10.37-4.08,11.09-7  C59.96,46.34,60,46.17,60,46V34v-0.5V22v-0.5v-12C60,4.89,51.24,0,35,0z M47.8,39.35c-0.04,0.1-0.09,0.2-0.14,0.3  c-0.07,0.12-0.14,0.25-0.23,0.37c-0.07,0.09-0.14,0.18-0.22,0.28c-0.11,0.13-0.23,0.26-0.36,0.39c-0.08,0.08-0.17,0.16-0.26,0.24  c-0.16,0.14-0.34,0.29-0.53,0.43c-0.08,0.06-0.17,0.12-0.26,0.18c-0.23,0.16-0.46,0.31-0.72,0.46c-0.07,0.04-0.14,0.08-0.21,0.12  c-0.3,0.17-0.61,0.33-0.94,0.5c-0.04,0.02-0.09,0.04-0.13,0.06c-0.37,0.18-0.77,0.35-1.19,0.52c-0.01,0-0.02,0.01-0.04,0.01  c-2.27,0.91-5.18,1.67-8.56,2.17c-0.02,0-0.03,0-0.05,0.01c-0.66,0.1-1.33,0.18-2.03,0.26c-0.11,0.01-0.23,0.02-0.35,0.03  c-0.61,0.06-1.22,0.12-1.85,0.17c-0.29,0.02-0.59,0.03-0.88,0.05c-0.47,0.03-0.94,0.06-1.43,0.08C26.64,45.98,25.83,46,25,46  s-1.64-0.02-2.43-0.04c-0.49-0.02-0.96-0.05-1.43-0.08c-0.29-0.02-0.59-0.03-0.88-0.05c-0.63-0.05-1.24-0.1-1.85-0.17  c-0.11-0.01-0.23-0.02-0.35-0.03c-0.69-0.08-1.37-0.16-2.03-0.26c-0.02,0-0.03,0-0.05-0.01c-3.39-0.5-6.29-1.26-8.56-2.17  c-0.01,0-0.02-0.01-0.04-0.01c-0.42-0.17-0.81-0.34-1.19-0.52c-0.04-0.02-0.09-0.04-0.13-0.06c-0.34-0.16-0.65-0.33-0.94-0.5  c-0.07-0.04-0.14-0.08-0.21-0.12c-0.26-0.15-0.49-0.31-0.72-0.46c-0.09-0.06-0.18-0.12-0.26-0.18c-0.19-0.14-0.36-0.28-0.53-0.43  c-0.09-0.08-0.18-0.16-0.26-0.24c-0.13-0.13-0.25-0.26-0.36-0.39c-0.08-0.09-0.15-0.18-0.22-0.28c-0.09-0.12-0.16-0.25-0.23-0.37  c-0.05-0.1-0.1-0.2-0.14-0.3c-0.05-0.12-0.09-0.24-0.12-0.36C2.04,38.82,2,38.66,2,38.5c0-0.11,0.01-0.23,0.03-0.34  c0.02-0.14,0.01-0.28-0.03-0.42v-7.45c0.03,0.03,0.06,0.05,0.09,0.08c0.22,0.19,0.44,0.38,0.69,0.57C6.55,33.79,14.08,36,25,36  c10.87,0,18.39-2.2,22.17-5.03c0.3-0.22,0.57-0.45,0.83-0.68c0,0,0,0,0,0v7.42c-0.04,0.14-0.06,0.29-0.03,0.44  C47.99,38.27,48,38.39,48,38.5c0,0.16-0.04,0.32-0.08,0.49C47.89,39.11,47.85,39.23,47.8,39.35z M2.6,18.8  c0.3,0.24,0.62,0.47,0.98,0.7c0.07,0.05,0.16,0.09,0.23,0.14c0.29,0.18,0.6,0.36,0.93,0.54c0.12,0.06,0.24,0.13,0.37,0.19  c0.37,0.19,0.75,0.37,1.15,0.54c0.07,0.03,0.13,0.06,0.19,0.09c0.47,0.2,0.97,0.39,1.49,0.57c0.14,0.05,0.29,0.1,0.44,0.15  c0.41,0.14,0.84,0.27,1.28,0.4c0.16,0.05,0.31,0.09,0.48,0.14c0.58,0.16,1.19,0.32,1.82,0.46c0.09,0.02,0.18,0.04,0.27,0.06  c0.56,0.12,1.14,0.23,1.74,0.34c0.2,0.04,0.41,0.07,0.61,0.1c0.57,0.09,1.15,0.18,1.75,0.26c0.15,0.02,0.3,0.04,0.46,0.06  c0.74,0.09,1.51,0.17,2.3,0.23c0.2,0.02,0.4,0.03,0.6,0.04c0.63,0.05,1.28,0.08,1.94,0.11c0.24,0.01,0.48,0.02,0.73,0.03  C23.21,23.98,24.09,24,25,24s1.79-0.02,2.65-0.05c0.25-0.01,0.49-0.02,0.73-0.03c0.66-0.03,1.31-0.07,1.94-0.11  c0.2-0.01,0.4-0.03,0.6-0.04c0.79-0.07,1.56-0.14,2.3-0.23c0.16-0.02,0.3-0.04,0.46-0.06c0.6-0.08,1.18-0.16,1.75-0.26  c0.21-0.03,0.41-0.07,0.61-0.1c0.6-0.11,1.18-0.22,1.74-0.34c0.09-0.02,0.18-0.04,0.27-0.06c0.63-0.14,1.24-0.3,1.82-0.46  c0.16-0.04,0.32-0.09,0.48-0.14c0.44-0.13,0.87-0.26,1.28-0.4c0.15-0.05,0.3-0.1,0.44-0.15c0.52-0.18,1.02-0.37,1.49-0.57  c0.07-0.03,0.13-0.06,0.19-0.09c0.4-0.18,0.79-0.36,1.15-0.54c0.13-0.06,0.25-0.13,0.37-0.19c0.33-0.18,0.64-0.35,0.93-0.54  c0.08-0.05,0.16-0.09,0.23-0.14c0.35-0.23,0.67-0.46,0.98-0.7c0.08-0.06,0.14-0.12,0.21-0.18c0.13-0.11,0.27-0.21,0.39-0.32v7.42  c-0.04,0.14-0.06,0.29-0.03,0.44C47.99,26.27,48,26.39,48,26.5c0,0.16-0.04,0.32-0.08,0.49c-0.03,0.12-0.07,0.24-0.12,0.36  c-0.04,0.1-0.09,0.2-0.14,0.3c-0.07,0.12-0.14,0.25-0.23,0.37c-0.07,0.09-0.14,0.18-0.22,0.28c-0.11,0.13-0.23,0.26-0.36,0.39  c-0.08,0.08-0.17,0.16-0.26,0.24c-0.16,0.14-0.34,0.29-0.53,0.43c-0.08,0.06-0.17,0.12-0.26,0.18c-0.23,0.16-0.46,0.31-0.72,0.46  c-0.07,0.04-0.14,0.08-0.21,0.12c-0.3,0.17-0.61,0.33-0.94,0.5c-0.04,0.02-0.09,0.04-0.13,0.06c-0.37,0.18-0.77,0.35-1.19,0.52  c-0.01,0-0.02,0.01-0.04,0.01c-2.27,0.91-5.18,1.67-8.56,2.17c-0.02,0-0.03,0-0.05,0.01c-0.66,0.1-1.33,0.18-2.03,0.26  c-0.11,0.01-0.23,0.02-0.35,0.03c-0.61,0.06-1.22,0.12-1.85,0.17c-0.29,0.02-0.59,0.03-0.88,0.05c-0.47,0.03-0.94,0.06-1.43,0.08  C26.64,33.98,25.83,34,25,34s-1.64-0.02-2.43-0.04c-0.49-0.02-0.96-0.05-1.43-0.08c-0.29-0.02-0.59-0.03-0.88-0.05  c-0.63-0.05-1.24-0.1-1.85-0.17c-0.11-0.01-0.23-0.02-0.35-0.03c-0.69-0.08-1.37-0.16-2.03-0.26c-0.02,0-0.03,0-0.05-0.01  c-3.39-0.5-6.29-1.26-8.56-2.17c-0.01,0-0.02-0.01-0.04-0.01c-0.42-0.17-0.81-0.34-1.19-0.52c-0.04-0.02-0.09-0.04-0.13-0.06  c-0.34-0.16-0.65-0.33-0.94-0.5c-0.07-0.04-0.14-0.08-0.21-0.12c-0.26-0.15-0.49-0.31-0.72-0.46c-0.09-0.06-0.18-0.12-0.26-0.18  c-0.19-0.14-0.36-0.28-0.53-0.43c-0.09-0.08-0.18-0.16-0.26-0.24c-0.13-0.13-0.25-0.26-0.36-0.39c-0.08-0.09-0.15-0.18-0.22-0.28  c-0.09-0.12-0.16-0.25-0.23-0.37c-0.05-0.1-0.1-0.2-0.14-0.3c-0.05-0.12-0.09-0.24-0.12-0.36C2.04,26.82,2,26.66,2,26.5  c0-0.11,0.01-0.23,0.03-0.34c0.02-0.14,0.01-0.28-0.03-0.42v-7.45c0.12,0.11,0.26,0.22,0.39,0.32C2.46,18.68,2.53,18.74,2.6,18.8z   M50,39.09V39v-0.5V38v-8.83c0.04-0.01,0.08-0.03,0.13-0.04c0.4-0.11,0.79-0.23,1.17-0.35c0,0,0.01,0,0.01,0  c2.96-0.94,5.22-2.1,6.69-3.43v8.14c0,0.12-0.02,0.23-0.03,0.35c-0.02,0.1-0.04,0.19-0.07,0.29c-0.01,0.03-0.02,0.06-0.02,0.08  c-0.04,0.1-0.08,0.21-0.13,0.31c-0.01,0.01-0.01,0.03-0.02,0.04c-0.83,1.61-3.47,3.2-7.27,4.38C50.3,39,50.15,39.05,50,39.09z   M58,13.35v8.15c0,0.12-0.02,0.23-0.03,0.35c-0.02,0.1-0.04,0.19-0.07,0.29c-0.01,0.03-0.02,0.06-0.02,0.08  c-0.04,0.1-0.08,0.21-0.13,0.31c-0.01,0.01-0.01,0.03-0.02,0.04c-0.83,1.61-3.47,3.2-7.27,4.38C50.3,27,50.15,27.05,50,27.09V27  v-0.5V26v-8.83c0.08-0.02,0.16-0.05,0.24-0.07c0.23-0.07,0.45-0.13,0.68-0.2c0.19-0.06,0.38-0.11,0.56-0.17  c0.23-0.07,0.45-0.15,0.67-0.23c0.17-0.06,0.33-0.11,0.5-0.17c0.23-0.09,0.45-0.17,0.67-0.26c0.14-0.05,0.28-0.11,0.41-0.16  c0.26-0.11,0.5-0.22,0.74-0.33c0.09-0.04,0.18-0.08,0.26-0.12c0.32-0.16,0.64-0.32,0.93-0.48c0.03-0.02,0.06-0.03,0.09-0.05  c0.26-0.15,0.51-0.29,0.75-0.45c0.08-0.05,0.16-0.11,0.24-0.16c0.18-0.12,0.35-0.24,0.51-0.36c0.09-0.07,0.17-0.13,0.25-0.2  c0.14-0.11,0.28-0.22,0.41-0.34C57.95,13.39,57.98,13.37,58,13.35z M35,2c13.55,0,23,3.95,23,7.5c0,0.13-0.01,0.27-0.04,0.4  c-0.01,0.04-0.02,0.09-0.04,0.13c-0.02,0.09-0.05,0.18-0.08,0.27c-0.02,0.05-0.05,0.1-0.07,0.16c-0.04,0.08-0.07,0.16-0.12,0.24  c-0.03,0.06-0.07,0.11-0.1,0.17c-0.05,0.08-0.1,0.16-0.16,0.23c-0.04,0.06-0.09,0.11-0.13,0.17c-0.06,0.08-0.13,0.15-0.2,0.23  c-0.05,0.06-0.11,0.11-0.16,0.17c-0.08,0.07-0.15,0.15-0.24,0.22c-0.06,0.06-0.13,0.11-0.19,0.17c-0.09,0.07-0.18,0.15-0.28,0.22  c-0.07,0.05-0.14,0.11-0.22,0.16c-0.1,0.07-0.21,0.15-0.32,0.22c-0.08,0.05-0.16,0.11-0.24,0.16c-0.12,0.07-0.24,0.14-0.36,0.22  c-0.09,0.05-0.17,0.1-0.26,0.15c-0.13,0.07-0.27,0.15-0.41,0.22c-0.09,0.05-0.18,0.09-0.27,0.14c-0.15,0.08-0.31,0.15-0.48,0.22  c-0.09,0.04-0.17,0.08-0.26,0.12c-0.21,0.09-0.43,0.19-0.66,0.28c-0.04,0.02-0.09,0.04-0.13,0.06c-0.27,0.11-0.56,0.22-0.85,0.32  c-0.08,0.03-0.17,0.06-0.25,0.09c-0.21,0.07-0.43,0.15-0.65,0.22c-0.12,0.04-0.24,0.07-0.36,0.11c-0.16,0.05-0.32,0.1-0.49,0.15  V14.5V14c0-0.13-0.03-0.24-0.08-0.35c-0.01-0.02-0.01-0.04-0.02-0.05c-0.01-0.01-0.01-0.03-0.02-0.04c-0.28-1.18-1.12-2.28-2.4-3.28  c-0.01-0.01-0.01-0.01-0.02-0.02c-0.18-0.14-0.39-0.28-0.59-0.42c-3.55-2.51-10.08-4.48-19.33-4.79C26.71,5.02,25.86,5,25,5  c-0.85,0-1.7,0.02-2.54,0.05c-2.5,0.08-4.79,0.29-6.88,0.59C19.45,3.61,26.27,2,35,2z M13.49,8.06c0.25-0.05,0.51-0.09,0.77-0.14  c0.33-0.06,0.67-0.12,1.01-0.18c0.3-0.05,0.6-0.09,0.91-0.14c0.34-0.05,0.68-0.09,1.03-0.14c0.29-0.04,0.59-0.07,0.89-0.11  c0.6-0.06,1.21-0.12,1.83-0.17c0.24-0.02,0.48-0.03,0.72-0.05c0.48-0.03,0.97-0.06,1.47-0.08c0.24-0.01,0.47-0.02,0.71-0.03  C23.53,7.02,24.26,7,25,7c0.83,0,1.64,0.02,2.43,0.04c0.48,0.02,0.94,0.05,1.41,0.08c0.3,0.02,0.61,0.03,0.9,0.05  c0.62,0.04,1.22,0.1,1.82,0.16c0.12,0.01,0.25,0.02,0.37,0.03c0.68,0.07,1.34,0.16,1.98,0.25c0.03,0,0.07,0.01,0.1,0.01  c3.37,0.5,6.26,1.26,8.53,2.16c0.03,0.01,0.05,0.02,0.08,0.03c0.41,0.16,0.79,0.33,1.15,0.5c0.06,0.03,0.11,0.05,0.17,0.08  c0.32,0.16,0.63,0.32,0.91,0.48c0.08,0.05,0.16,0.09,0.24,0.14c0.25,0.15,0.48,0.3,0.7,0.45c0.09,0.07,0.19,0.13,0.28,0.2  c0.18,0.14,0.35,0.27,0.51,0.41c0.1,0.08,0.19,0.17,0.28,0.25c0.13,0.13,0.24,0.25,0.35,0.38c0.08,0.1,0.16,0.19,0.23,0.29  c0.09,0.12,0.16,0.24,0.22,0.36c0.06,0.1,0.1,0.2,0.15,0.3c0.05,0.12,0.09,0.24,0.11,0.36C47.96,14.18,48,14.34,48,14.5  c0,3.55-9.45,7.5-23,7.5S2,18.05,2,14.5C2,12.08,6.4,9.47,13.49,8.06z M25,58c-13.04,0-22.4-3.7-22.97-7.16  C2.02,50.79,2.01,50.75,2,50.71v-8.41c0.03,0.03,0.06,0.05,0.09,0.08c0.22,0.19,0.44,0.38,0.69,0.57C6.55,45.79,14.08,48,25,48  c10.87,0,18.39-2.2,22.17-5.03c0.3-0.22,0.57-0.45,0.83-0.68c0,0,0,0,0,0v8.41c-0.01,0.04-0.02,0.09-0.03,0.13  c-0.03,0.2-0.1,0.41-0.2,0.61c-0.04,0.08-0.09,0.16-0.14,0.24C45.83,54.88,36.97,58,25,58z M57.97,45.84  c-0.32,1.94-3.31,3.89-7.97,5.25c0-0.03,0-0.06,0-0.09v-9.83c0.04-0.01,0.08-0.03,0.13-0.04c0.4-0.11,0.79-0.23,1.17-0.35  c0,0,0.01,0,0.01,0c2.96-0.94,5.22-2.1,6.69-3.43v8.35C57.99,45.75,57.98,45.79,57.97,45.84z"></path></svg>