<svg xmlns="http://www.w3.org/2000/svg" xmlns:xlink="http://www.w3.org/1999/xlink" version="1.1" x="0px" y="0px" viewBox="0 0 300 300" enable-background="new 0 0 300 300" xml:space="preserve"><path d="M230.223,280.597H69.777c-27.776,0-50.374-22.597-50.374-50.372V69.777c0-27.776,22.598-50.374,50.374-50.374h160.445  c27.776,0,50.374,22.598,50.374,50.374v160.448C280.597,258,257.999,280.597,230.223,280.597z M69.777,30.598  c-21.604,0-39.181,17.576-39.181,39.179v160.448c0,21.603,17.576,39.179,39.181,39.179h160.445  c21.604,0,39.181-17.576,39.181-39.179V69.777c0-21.604-17.576-39.179-39.181-39.179H69.777z"></path><polygon points="150,191.345 114.039,155.383 121.109,148.313 145,172.203 145,92.592 155,92.592 155,172.205 178.89,148.313   185.961,155.383 "></polygon><g><rect x="87.5" y="202.408" width="16.539" height="10"></rect><rect x="124.039" y="202.408" width="88.461" height="10"></rect></g></svg>