<?xml version="1.0" encoding="utf-8"?>
<!-- Generator: Adobe Illustrator 16.0.0, SVG Export Plug-In . SVG Version: 6.00 Build 0)  -->
<!DOCTYPE svg PUBLIC "-//W3C//DTD SVG 1.1//EN" "http://www.w3.org/Graphics/SVG/1.1/DTD/svg11.dtd">
<svg version="1.1" id="Edit_1_" xmlns="http://www.w3.org/2000/svg" xmlns:xlink="http://www.w3.org/1999/xlink" x="0px" y="0px"
	 width="42px" height="42px" viewBox="0 0 42 42" enable-background="new 0 0 42 42" xml:space="preserve">
<path fill-rule="evenodd" clip-rule="evenodd" d="M20.994,42.01c-11.58,0-21-9.42-21-21c0-11.579,9.42-21,21-21
	c11.579,0,21,9.421,21,21C41.994,32.59,32.573,42.01,20.994,42.01z M20.994,2.343c-10.31,0-18.667,8.357-18.667,18.667
	c0,10.31,8.357,18.667,18.667,18.667c10.309,0,18.666-8.357,18.666-18.667C39.66,10.701,31.303,2.343,20.994,2.343z"/>
<path d="M28.26,15.696l-1.963-1.965c-0.394-0.394-0.916-0.61-1.473-0.61s-1.079,0.217-1.473,0.612L15.5,21.59
	c-0.133,0.133-0.238,0.291-0.307,0.467l-1.964,4.912c-0.206,0.516-0.085,1.105,0.308,1.498c0.265,0.266,0.62,0.407,0.981,0.407
	c0.173,0,0.348-0.032,0.516-0.1l4.908-1.965c0.175-0.069,0.333-0.175,0.466-0.308l7.853-7.859c0.393-0.392,0.61-0.915,0.61-1.472
	C28.871,16.613,28.654,16.089,28.26,15.696z M14.518,27.484l1.839-4.602c1.283,0.723,2.07,1.492,2.795,2.746L14.518,27.484z
	 M27.279,17.66l-7.561,7.566c-0.771-1.312-1.628-2.154-2.971-2.922l7.586-7.591c0.136-0.136,0.313-0.204,0.49-0.204
	c0.178,0,0.355,0.068,0.491,0.204l1.964,1.965C27.55,16.949,27.55,17.39,27.279,17.66z"/>
</svg>
