<?xml version="1.0" encoding="utf-8"?>
<!-- Generator: Adobe Illustrator 16.0.0, SVG Export Plug-In . SVG Version: 6.00 Build 0)  -->
<!DOCTYPE svg PUBLIC "-//W3C//DTD SVG 1.1//EN" "http://www.w3.org/Graphics/SVG/1.1/DTD/svg11.dtd">
<svg version="1.1" id="Layer_1" xmlns="http://www.w3.org/2000/svg" xmlns:xlink="http://www.w3.org/1999/xlink" x="0px" y="0px"
	 width="32.836px" height="31.773px" viewBox="-0.258 0 32.836 31.773" enable-background="new -0.258 0 32.836 31.773"
	 xml:space="preserve">
<path fill="#191717" d="M15.809-0.002c-8.996,0-16.29,7.293-16.29,16.291c0,7.196,4.667,13.303,11.141,15.458
	c0.814,0.146,1.112-0.355,1.112-0.785c0-0.387-0.014-1.412-0.022-2.771c-4.531,0.984-5.487-2.184-5.487-2.184
	c-0.741-1.881-1.809-2.383-1.809-2.383c-1.479-1.01,0.112-0.99,0.112-0.99c1.635,0.115,2.495,1.68,2.495,1.68
	c1.453,2.488,3.812,1.77,4.741,1.354c0.148-1.053,0.569-1.771,1.034-2.178c-3.617-0.412-7.42-1.809-7.42-8.052
	c0-1.777,0.635-3.231,1.677-4.371c-0.167-0.411-0.727-2.067,0.16-4.311c0,0,1.368-0.438,4.479,1.67
	c1.299-0.361,2.693-0.542,4.079-0.548c1.383,0.006,2.776,0.187,4.079,0.548c3.109-2.108,4.475-1.67,4.475-1.67
	c0.889,2.243,0.33,3.899,0.162,4.311c1.043,1.14,1.674,2.594,1.674,4.371c0,6.259-3.809,7.636-7.438,8.038
	c0.586,0.504,1.105,1.498,1.105,3.02c0,2.178-0.02,3.934-0.02,4.469c0,0.436,0.293,0.941,1.119,0.783
	c6.469-2.158,11.131-8.262,11.131-15.456C32.098,7.291,24.805-0.002,15.809-0.002z"/>
</svg>
