<?xml version="1.0" encoding="utf-8"?>
<!DOCTYPE svg PUBLIC "-//W3C//DTD SVG 1.1//EN" "http://www.w3.org/Graphics/SVG/1.1/DTD/svg11.dtd">
<svg version="1.1" id="Layer_1" xmlns="http://www.w3.org/2000/svg" xmlns:xlink="http://www.w3.org/1999/xlink" x="0px" y="0px"
	 width="612px" height="792px" viewBox="0 0 612 792" enable-background="new 0 0 612 792" xml:space="preserve">
<path d="M430.634,152.173c-58.557,0-99.413,17.069-124.646,52.13c-25.123-34.596-67.883-52.13-127.229-52.13
	c-82.675,0-147.437,67.669-147.437,154.059c0,68.611,91.745,181.605,265.32,326.778l8.133,6.823l2.865-2.533
	c8.029-7.075,18.225-15.704,30.036-25.711c84.928-71.909,242.995-205.754,242.995-305.357
	C580.659,219.842,514.76,152.173,430.634,152.173z M541.907,389.966c-49.425,78.85-148.851,163.098-209.971,214.843
	c-10.483,8.88-19.7,16.688-27.295,23.323l-2.295-1.922C173.673,518.584,105.38,442.145,71.133,388.185l-5.459-8.892
	c-19.137-32.295-25.465-55.937-25.465-73.061c0-82.767,59.566-145.179,138.557-145.179c59.181,0,100.729,18.005,123.496,53.525
	l3.739,5.833l3.739-5.833c23.085-36.016,62.639-53.525,120.9-53.525c79.145,0,141.152,63.764,141.152,145.172
	c0,23.244-9.303,48.672-24.505,74.854L541.907,389.966z"/>
</svg>
