<?xml version="1.0" encoding="utf-8"?>
<!DOCTYPE svg PUBLIC "-//W3C//DTD SVG 1.1//EN" "http://www.w3.org/Graphics/SVG/1.1/DTD/svg11.dtd">
<svg version="1.1" id="Layer_1" xmlns="http://www.w3.org/2000/svg" xmlns:xlink="http://www.w3.org/1999/xlink" x="0px" y="0px"
	 width="612px" height="792px" viewBox="0 0 612 792" enable-background="new 0 0 612 792" xml:space="preserve">
<path d="M430.634,152.173c-58.557,0-99.413,17.069-124.646,52.13c-25.123-34.596-67.883-52.13-127.229-52.13
	c-82.675,0-147.437,67.669-147.437,154.059c0,68.611,91.745,181.605,265.32,326.778l8.133,6.823l2.865-2.533
	c8.029-7.075,18.225-15.704,30.036-25.711c84.928-71.909,242.995-205.754,242.995-305.357
	C580.659,219.842,514.76,152.173,430.634,152.173z M178.765,161.053c59.181,0,100.729,18.005,123.496,53.525l3.739,5.833
	l3.739-5.833c23.085-36.016,62.639-53.525,120.9-53.525c79.145,0,141.152,63.764,141.152,145.172
	c0,23.244-9.303,48.672-24.505,74.854H438.094l-3.133,1.297L314.678,502.182V283.827l-8.604-1.548l-63.036,169.304l-32.167-120.044
	h-8.574L189.5,379.292H65.674c-19.137-32.295-25.465-55.937-25.465-73.061C40.208,223.465,99.774,161.053,178.765,161.053z
	 M331.937,604.809c-10.483,8.88-19.7,16.688-27.295,23.323l-2.295-1.922C173.673,518.584,105.38,442.145,71.133,388.185h121.776
	l4.29-3.292l9.388-35.043l31.475,117.467l8.445,0.404l59.285-159.243v204.383l7.583,3.146l126.549-126.041h101.983
	C492.482,468.815,393.057,553.063,331.937,604.809z"/>
</svg>
