<svg xmlns="http://www.w3.org/2000/svg" xmlns:xlink="http://www.w3.org/1999/xlink" version="1.1" x="0px" y="0px" viewBox="0 0 100 100" enable-background="new 0 0 100 100" xml:space="preserve"><path d="M70.365,10.159c-9.568,0-16.244,2.789-20.367,8.518c-4.105-5.653-11.092-8.518-20.789-8.518  c-13.509,0-24.091,11.057-24.091,25.173c0,11.211,14.991,29.674,43.353,53.395l1.329,1.115l0.468-0.414  c1.312-1.156,2.978-2.566,4.908-4.201c13.877-11.75,39.705-33.62,39.705-49.895C94.879,21.216,84.111,10.159,70.365,10.159z   M29.21,11.61c9.67,0,16.459,2.942,20.179,8.746L50,21.309l0.611-0.953c3.772-5.885,10.235-8.746,19.755-8.746  c12.932,0,23.064,10.419,23.064,23.721c0,3.798-1.52,7.953-4.004,12.231H71.584l-0.512,0.212L51.418,67.35V31.671l-1.406-0.253  l-10.3,27.664l-5.256-19.615h-1.401l-2.091,7.803H10.731C7.604,41.993,6.57,38.13,6.57,35.332C6.57,21.808,16.303,11.61,29.21,11.61  z M54.238,84.119c-1.713,1.451-3.219,2.727-4.46,3.811l-0.375-0.314c-21.025-17.586-32.184-30.076-37.78-38.893h19.898l0.701-0.538  l1.534-5.726l5.143,19.194l1.38,0.066l9.687-26.02v33.396l1.239,0.514l20.678-20.595h16.664  C80.471,61.898,64.225,75.664,54.238,84.119z"></path></svg>