<?xml version="1.0" encoding="utf-8"?>
<!-- Generator: Adobe Illustrator 16.0.0, SVG Export Plug-In . SVG Version: 6.00 Build 0)  -->
<!DOCTYPE svg PUBLIC "-//W3C//DTD SVG 1.1//EN" "http://www.w3.org/Graphics/SVG/1.1/DTD/svg11.dtd">
<svg version="1.1" id="Layer_1" xmlns="http://www.w3.org/2000/svg" xmlns:xlink="http://www.w3.org/1999/xlink" x="0px" y="0px"
	 width="72px" height="72px" viewBox="0 0 72 72" enable-background="new 0 0 72 72" xml:space="preserve">
<path d="M0.76,45.144c0-5.261,0-10.521,0-15.78c11.417,0,22.834,0,34.521,0c0-8.586,0-16.129,0-23.672c0.328,0,0.658,0,0.986,0
	c11.896,10.389,23.792,20.776,35.96,31.403c-1.581,1.454-2.738,2.562-3.941,3.62c-10.668,9.372-21.345,18.734-32.019,28.1
	c-0.328,0-0.658,0-0.986,0c0-7.771,0-15.544,0-23.671C23.296,45.144,12.027,45.144,0.76,45.144z"/>
<path display="none" fill-rule="evenodd" clip-rule="evenodd" fill="#FFFFFF" d="M68.055,37.479
	c-9.365-10.674-18.728-21.35-28.1-32.018c-1.058-1.203-2.166-2.361-3.62-3.942C25.708,13.688,15.32,25.583,4.932,37.479
	c0-12.121,0-24.241,0-36.428c20.921,0,41.842,0,63.123,0C68.055,13.148,68.055,25.313,68.055,37.479z"/>
<path display="none" fill-rule="evenodd" clip-rule="evenodd" fill="#FFFFFF" d="M4.932,38.466c7.542,0,15.085,0,23.671,0
	c0,11.687,0,23.104,0,34.521c-7.891,0-15.781,0-23.671,0C4.932,61.479,4.932,49.973,4.932,38.466z"/>
<path display="none" fill-rule="evenodd" clip-rule="evenodd" fill="#FFFFFF" d="M44.384,72.986c0-11.268,0-22.536,0-34.521
	c8.127,0,15.899,0,23.671,0c0,11.507,0,23.014,0,34.521C60.164,72.986,52.274,72.986,44.384,72.986z"/>
</svg>
