<?xml version="1.0" encoding="utf-8"?>
<!-- Generator: Adobe Illustrator 16.0.0, SVG Export Plug-In . SVG Version: 6.00 Build 0)  -->
<!DOCTYPE svg PUBLIC "-//W3C//DTD SVG 1.1//EN" "http://www.w3.org/Graphics/SVG/1.1/DTD/svg11.dtd">
<svg version="1.1" id="Layer_1" xmlns="http://www.w3.org/2000/svg" xmlns:xlink="http://www.w3.org/1999/xlink" x="0px" y="0px"
	 width="480.857px" height="524.571px" viewBox="0 0 480.857 524.571" enable-background="new 0 0 480.857 524.571"
	 xml:space="preserve">
<g transform="matrix(1 0 0 -1 0 1536)">
	<path d="M194.857,1330.356v-196.714c0-3.188-1.024-5.806-3.073-7.854c-2.049-2.049-4.667-3.073-7.855-3.073h-21.857
		c-3.188,0-5.806,1.024-7.855,3.073c-2.049,2.049-3.073,4.667-3.073,7.854v196.714c0,3.188,1.024,5.806,3.073,7.855
		c2.049,2.049,4.667,3.073,7.855,3.073h21.857c3.188,0,5.806-1.024,7.855-3.073C193.833,1336.163,194.857,1333.544,194.857,1330.356
		z M282.286,1330.356v-196.714c0-3.188-1.023-5.806-3.074-7.854c-2.049-2.049-4.667-3.073-7.855-3.073H249.5
		c-3.188,0-5.806,1.024-7.854,3.073c-2.049,2.049-3.075,4.667-3.075,7.854v196.714c0,3.188,1.025,5.806,3.075,7.855
		c2.049,2.049,4.666,3.073,7.854,3.073h21.856c3.188,0,5.807-1.024,7.855-3.073C281.261,1336.163,282.286,1333.544,282.286,1330.356
		z M369.714,1330.356v-196.714c0-3.188-1.023-5.806-3.073-7.854c-2.049-2.049-4.667-3.073-7.854-3.073H336.93
		c-3.188,0-5.806,1.024-7.854,3.073s-3.073,4.667-3.073,7.854v196.714c0,3.188,1.024,5.806,3.073,7.855
		c2.05,2.049,4.668,3.073,7.854,3.073h21.857c3.188,0,5.806-1.024,7.854-3.073C368.689,1336.163,369.714,1333.544,369.714,1330.356z
		 M413.429,1083.097v323.759h-306v-323.759c0-5.009,0.797-9.619,2.391-13.83c1.594-4.213,3.244-7.287,4.952-9.221
		c1.708-1.938,2.903-2.904,3.586-2.904H402.5c0.683,0,1.878,0.969,3.586,2.904c1.708,1.934,3.358,5.008,4.952,9.221
		C412.632,1073.478,413.429,1078.089,413.429,1083.097z M183.929,1450.571h153l-16.394,39.958c-1.594,2.049-3.528,3.301-5.805,3.757
		H206.469c-2.277-0.456-4.212-1.708-5.806-3.757L183.929,1450.571z M500.857,1439.643v-21.857c0-3.188-1.024-5.806-3.074-7.854
		c-2.049-2.049-4.667-3.074-7.854-3.074h-32.786v-323.758c0-18.897-5.351-35.234-16.051-49.008
		c-10.701-13.775-23.564-20.662-38.592-20.662H118.357c-15.026,0-27.891,6.66-38.591,19.979
		c-10.7,13.32-16.051,29.428-16.051,48.324v325.125H30.929c-3.188,0-5.806,1.024-7.855,3.074c-2.049,2.049-3.074,4.667-3.074,7.854
		v21.857c0,3.188,1.024,5.806,3.074,7.855c2.049,2.049,4.667,3.074,7.855,3.074h105.529l23.906,57.033
		c3.415,8.424,9.562,15.596,18.442,21.516c8.879,5.92,17.873,8.88,26.98,8.88h109.286c9.106,0,18.101-2.96,26.979-8.88
		c8.879-5.919,15.026-13.091,18.441-21.516l23.906-57.033h105.528c3.188,0,5.807-1.024,7.854-3.074
		C499.833,1445.449,500.857,1442.831,500.857,1439.643z"/>
</g>
</svg>
